<?xml version="1.0" encoding="utf-8"?>
<!-- Generator: Adobe Illustrator 22.0.1, SVG Export Plug-In . SVG Version: 6.00 Build 0)  -->
<svg version="1.1" id="Layer_1" xmlns="http://www.w3.org/2000/svg" xmlns:xlink="http://www.w3.org/1999/xlink" x="0px" y="0px"
	 viewBox="0 0 111.2 113.4" style="enable-background:new 0 0 111.2 113.4;" xml:space="preserve">
<style type="text/css">
	.st0{fill-rule:evenodd;clip-rule:evenodd;}
	.st1{fill:none;stroke:#FFFFFF;stroke-width:3.969996e-03;stroke-miterlimit:2.6131;}
	.st2{font-family:'ArialMT';}
	.st3{font-size:9.9999px;}
</style>
<path class="st0" d="M58.5,108.4l0.1,4.3l-0.6,0.1l-0.1-4.3L58.5,108.4 M62,108.1l0.4,4.3h-0.6l-0.4-4.2L62,108.1z M65.7,107.5
	l0.9,4.2l-0.6,0.1l-0.9-4.2L65.7,107.5z M69.1,106.6l1.2,4.2l-0.6,0.1l-1.1-4.2L69.1,106.6z M72.5,105.6l1.5,4l-0.6,0.2l-1.4-4.1
	L72.5,105.6z M75.9,104.3l1.6,4l-0.5,0.2l-1.7-4L75.9,104.3z M79.2,102.8l1.9,3.8l-0.5,0.3l-1.9-3.9L79.2,102.8z M82.3,101l2.2,3.7
	l-0.5,0.3l-2.2-3.7L82.3,101z M85.4,99.1l2.5,3.5l-0.5,0.4l-2.5-3.5L85.4,99.1z M88.2,96.9l2.7,3.4l-0.5,0.4l-2.7-3.4L88.2,96.9z
	 M90.8,94.5l3,3.1L93.4,98l-3-3.1L90.8,94.5z M93.4,92l3.2,3l-0.4,0.4l-3.1-3L93.4,92z M95.9,89.2l3.4,2.7l-0.4,0.5l-3.4-2.7
	L95.9,89.2z M98,86.4l3.5,2.6l-0.4,0.4l-3.5-2.5L98,86.4z M100,83.4l3.7,2.3l-0.4,0.4l-3.6-2.2L100,83.4z M101.7,80.2l3.9,1.9
	l-0.3,0.5l-3.8-1.9L101.7,80.2z M103.2,77l4,1.8l-0.3,0.5l-4-1.7L103.2,77z M104.5,73.7l4.1,1.3l-0.2,0.6l-4.1-1.4L104.5,73.7z
	 M105.6,70.1l4.1,1.2l-0.1,0.6l-4.1-1.2L105.6,70.1z M106.4,66.8l4.2,0.8l-0.1,0.6l-4.2-0.8L106.4,66.8z M107,63.2l4.3,0.5l-0.1,0.6
	l-4.3-0.5L107,63.2z M107.4,59.6l4.3,0.4l-0.1,0.6l-4.2-0.4V59.6z M107.4,56l4.3-0.1l0.1,0.6l-4.3,0.1L107.4,56z M107.2,52.4
	l4.2-0.4l0.1,0.6l-4.3,0.4V52.4z M106.9,48.9l4.3-0.5l0.1,0.6l-4.3,0.5L106.9,48.9z M106.2,45.3l4.2-1l0.1,0.6l-4.2,1L106.2,45.3z
	 M105.1,41.8l4.2-1.2l0.1,0.6l-4.2,1.2L105.1,41.8z M104,38.4l4-1.6l0.2,0.5l-4,1.7L104,38.4z M102.6,35l4-1.7l0.2,0.5l-3.9,1.8
	L102.6,35z M101.1,31.8l3.8-1.9l0.3,0.5l-3.9,1.9L101.1,31.8z M99.2,28.9l3.7-2.2l0.3,0.5l-3.7,2.2L99.2,28.9z M97.2,25.8l3.5-2.6
	l0.4,0.5l-3.5,2.6L97.2,25.8z M94.9,23l3.3-2.8l0.4,0.4l-3.3,2.8L94.9,23z M92.5,20.4l3.1-3l0.4,0.4l-3.1,3L92.5,20.4z M90.4,18.4
	l2.8-3.2l0.4,0.4l-2.8,3.2L90.4,18.4z M88.1,16.4l2.8-3.2l0.4,0.4l-2.8,3.2L88.1,16.4z M85.6,14.6l2.6-3.5l0.5,0.4L86.1,15
	L85.6,14.6z M82.7,12.6l2.2-3.7l0.5,0.3l-2.2,3.7L82.7,12.6z M79.5,10.8l1.9-3.9L82,7.2L80,11L79.5,10.8z M76.3,9.3l1.8-4l0.5,0.3
	l-1.7,4L76.3,9.3z M73.1,7.9l1.3-4.1L74.9,4l-1.4,4.1L73.1,7.9z M69.6,6.8l1.2-4.1l0.6,0.1l-1.2,4.1L69.6,6.8z M66,6l0.9-4.2
	l0.6,0.1l-0.9,4.2L66,6z M62.4,5.3l0.4-4.3L63.4,1L63,5.3L62.4,5.3z M58.8,5l0.4-4.3l0.6,0.1L59.4,5H58.8z M55.4,4.8l0.1-4.3
	l0.6,0.1L56,4.9L55.4,4.8z M51.6,5.1l-0.4-4.2l0.6-0.1l0.4,4.3H51.6z M48.2,5.4l-0.5-4.3L48.3,1l0.5,4.3L48.2,5.4z M44.7,6.1l-1-4.2
	l0.6-0.1l1,4.2L44.7,6.1z M41.1,7.1l-1.2-4.2l0.6-0.1l1.2,4.2L41.1,7.1z M37.8,8.1L36.4,4L37,3.8l1.3,4.1L37.8,8.1z M34.3,9.5
	l-1.7-4l0.5-0.2l1.8,3.9L34.3,9.5z M31.1,11l-1.9-3.8l0.5-0.3l1.9,3.9L31.1,11z M28.1,13l-2.3-3.7L26.3,9l2.3,3.7L28.1,13z M25,14.8
	l-2.5-3.5L23,11l2.5,3.5L25,14.8z M22.2,17.1l-2.8-3.3l0.4-0.4l2.8,3.3L22.2,17.1z M19.6,19.5l-3-3.1l0.4-0.4l3,3.1L19.6,19.5z
	 M17.1,22l-3.2-3l0.4-0.4l3.1,3L17.1,22z M14.8,24.9l-3.4-2.7l0.4-0.4l3.4,2.7L14.8,24.9z M12.7,27.7l-3.5-2.6l0.4-0.4l3.5,2.5
	L12.7,27.7z M10.8,30.8l-3.7-2.2l0.3-0.5l3.7,2.2L10.8,30.8z M9.1,34l-3.9-1.9l0.3-0.5l3.8,1.9L9.1,34z M7.6,37.3l-4-1.7l0.2-0.5
	l4,1.6L7.6,37.3z M6.3,40.5l-4.1-1.4l0.2-0.6l4,1.5L6.3,40.5z M5.3,44.1l-4.2-0.9l0.1-0.6l4.2,0.9L5.3,44.1z M4.6,47.6l-4.2-0.8
	l0.1-0.6L4.7,47L4.6,47.6z M4,51.1l-4.3-0.5l0.1-0.6l4.3,0.5L4,51.1z M3.8,54.8l-4.3-0.1l0.1-0.6l4.3,0.1L3.8,54.8z M3.8,58.3
	l-4.3,0.1l-0.1-0.6l4.3-0.1L3.8,58.3z M4,61.9l-4.2,0.4l-0.1-0.6L4,61.3V61.9z M4.5,65.5l-4.2,0.9l-0.1-0.6l4.2-0.9L4.5,65.5z
	 M5.3,69l-4.2,1l-0.1-0.6l4.2-1L5.3,69z M6.2,72.4l-4,1.5L2,73.4l4.1-1.4L6.2,72.4z M7.5,75.9l-4,1.6L3.3,77l4-1.7L7.5,75.9z
	 M9,79.2l-4,1.7l-0.2-0.5l3.9-1.8L9,79.2z M10.7,82.3l-3.7,2.2L6.6,84l3.7-2.2L10.7,82.3z M12.5,85.5l-3.7,2.4l-0.3-0.5l3.6-2.3
	L12.5,85.5z M14.5,88.4l-3.4,2.7l-0.4-0.5l3.4-2.7L14.5,88.4z M16.9,91.2l-3.3,2.7l-0.4-0.4l3.3-2.7L16.9,91.2z M19.3,93.7l-2.9,3.2
	l-0.4-0.4l2.9-3.1L19.3,93.7z M21.9,96.1l-2.8,3.3l-0.4-0.4l2.8-3.3L21.9,96.1z M24.7,98.3l-2.4,3.6l-0.5-0.4l2.5-3.5L24.7,98.3z
	 M27.7,100.5l-2.3,3.6l-0.5-0.3l2.4-3.7L27.7,100.5z M30.8,102.3l-2.2,3.7l-0.5-0.3l2.2-3.7L30.8,102.3z M34.1,103.8l-1.8,4
	l-0.5-0.3l1.7-4L34.1,103.8z M37.4,105.2l-1.7,4l-0.5-0.2l1.6-4L37.4,105.2z M40.9,106.3l-1.1,4.2l-0.6-0.1l1.1-4.2L40.9,106.3z
	 M44.4,107.2l-0.9,4.2l-0.6-0.1l0.9-4.2L44.4,107.2z M47.8,107.9l-0.8,4.2l-0.6-0.1l0.8-4.2L47.8,107.9z M51.5,108.4l-0.4,4.3
	l-0.6-0.1l0.4-4.2H51.5z M55,108.5l-0.1,4.3l-0.6-0.1l0.1-4.3L55,108.5z"/>
<path class="st0" d="M57.5,93c0,0.1-0.1,0.3-0.1,0.4c-0.1,0.1-0.2,0.1-0.4,0.1c-0.1,0-0.3,0-0.4-0.1c-0.1-0.1-0.3-0.2-0.3-0.4
	c0-0.1,0.1-0.2,0.2-0.4c0.1-0.1,0.2-0.1,0.4-0.1c0.1,0,0.2,0.1,0.4,0.1C57.4,92.7,57.5,92.9,57.5,93 M60.7,92.7
	c0,0.1-0.1,0.4-0.1,0.4c-0.1,0.1-0.2,0.1-0.4,0.1c-0.1,0.1-0.3,0.1-0.4-0.1c-0.2-0.1-0.3-0.1-0.3-0.3c0-0.1,0.1-0.3,0.1-0.4
	c0.1-0.1,0.2-0.1,0.4-0.1c0.1-0.1,0.2,0,0.4,0.1C60.6,92.5,60.7,92.6,60.7,92.7z M63.7,92.2c0,0.1,0,0.3-0.1,0.4
	c-0.1,0.1-0.1,0.2-0.3,0.2c-0.1,0.1-0.3,0.1-0.4,0c-0.1-0.1-0.2-0.2-0.3-0.3c0-0.1,0-0.3,0.1-0.4c0-0.1,0.1-0.2,0.3-0.2
	c0.1-0.1,0.2,0,0.4,0C63.5,91.9,63.6,92,63.7,92.2z M66.7,91.4c0,0.1,0,0.3-0.1,0.4c-0.1,0.1-0.1,0.2-0.3,0.2C66.2,92,66,92,65.9,92
	c-0.1-0.1-0.2-0.2-0.3-0.3c0-0.1,0-0.3,0.1-0.4c0-0.1,0.1-0.2,0.3-0.2c0.1-0.1,0.2,0,0.4,0C66.5,91.1,66.6,91.2,66.7,91.4z
	 M69.4,90.3c0.1,0.1,0.1,0.3,0,0.4s-0.1,0.2-0.3,0.2c-0.1,0.1-0.3,0.1-0.4,0c-0.2,0-0.3-0.1-0.4-0.3c-0.1-0.1,0-0.2,0.1-0.4
	c0.1-0.1,0.1-0.1,0.3-0.2c0.1-0.1,0.2,0,0.4,0C69.3,90.1,69.4,90.2,69.4,90.3z M72.1,88.9c0.1,0.1,0.1,0.3,0.1,0.4
	c-0.1,0.2-0.1,0.2-0.3,0.3c-0.1,0.1-0.2,0.1-0.4,0c-0.1,0-0.3-0.1-0.4-0.2c-0.1-0.1,0-0.2,0.1-0.4c0-0.1,0.1-0.2,0.2-0.3
	c0.1-0.1,0.2,0,0.4,0C71.9,88.7,72.1,88.9,72.1,88.9z M74.8,87.6c0.1,0.1,0.1,0.3,0.1,0.4c-0.1,0.2-0.1,0.3-0.2,0.4
	c-0.1,0.1-0.3,0.1-0.4,0c-0.1,0.1-0.3-0.1-0.4-0.1c-0.1-0.1,0-0.2,0-0.4c0.1-0.1,0.1-0.2,0.3-0.3c0.1-0.1,0.2-0.1,0.4-0.1
	C74.6,87.3,74.7,87.4,74.8,87.6z M77.3,85.7c0.1,0.1,0.1,0.2,0.1,0.4c-0.1,0.2-0.1,0.2-0.2,0.3c-0.1,0.1-0.2,0.2-0.4,0.1
	c-0.2,0-0.4-0.1-0.4-0.1c-0.1-0.1-0.1-0.2,0-0.4c0-0.1,0.1-0.3,0.1-0.4c0.1-0.1,0.2-0.1,0.4-0.1C77.1,85.5,77.2,85.5,77.3,85.7z
	 M79.7,83.9c0.1,0.1,0.1,0.3,0.1,0.4c0,0.2-0.1,0.3-0.1,0.4c-0.1,0.1-0.2,0.2-0.4,0.1c-0.2,0-0.4,0-0.4-0.1
	c-0.1-0.1-0.1-0.2-0.1-0.4c0-0.1,0.1-0.2,0.1-0.3c0.1-0.1,0.2-0.1,0.4-0.1C79.5,83.7,79.6,83.8,79.7,83.9z M81.8,81.7
	c0.1,0.1,0.2,0.2,0.2,0.3c0,0.2-0.1,0.3-0.1,0.4c-0.1,0.1-0.2,0.2-0.4,0.2c-0.1,0.1-0.3,0-0.4-0.1c-0.1-0.1-0.1-0.2-0.1-0.4
	c0-0.1,0-0.2,0.1-0.4c0.1-0.1,0.2-0.1,0.4-0.1C81.6,81.6,81.8,81.6,81.8,81.7z M83.9,79.5c0.1,0.1,0.2,0.2,0.2,0.3
	c0,0.2-0.1,0.3-0.1,0.4c-0.1,0.1-0.2,0.2-0.4,0.2c-0.1,0.1-0.3,0-0.4-0.1c-0.1-0.1-0.1-0.2-0.1-0.4c0-0.1,0-0.2,0.1-0.4
	c0.1-0.1,0.2-0.1,0.4-0.1S83.9,79.4,83.9,79.5z M85.7,77c0.1,0.1,0.2,0.2,0.2,0.3c0.1,0.2,0,0.3-0.1,0.4c-0.1,0.1-0.2,0.2-0.4,0.1
	c-0.1,0.1-0.3,0.1-0.4,0c-0.1-0.1-0.1-0.2-0.1-0.4c0-0.1,0-0.2,0.1-0.4c0.1-0.1,0.1-0.1,0.3-0.2C85.5,76.8,85.7,76.9,85.7,77z
	 M87.4,74.4c0.1,0.1,0.2,0.2,0.2,0.3c0.1,0.2,0,0.3-0.1,0.4c-0.1,0.1-0.1,0.2-0.3,0.2c-0.1,0.1-0.3,0.1-0.4,0
	c-0.1-0.1-0.1-0.2-0.2-0.4c0-0.1,0-0.3,0.1-0.4c0.1-0.1,0.1-0.1,0.3-0.2C87.1,74.3,87.2,74.3,87.4,74.4z M88.7,71.6
	c0.1,0.1,0.2,0.2,0.2,0.3c0.1,0.2,0.1,0.3,0,0.4c-0.1,0.1-0.1,0.3-0.3,0.3c-0.1,0.1-0.3,0.1-0.4,0.1C88,72.5,88,72.4,88,72.2
	c-0.1-0.1-0.1-0.3,0-0.4c0.1-0.1,0.2-0.1,0.3-0.2C88.4,71.5,88.5,71.5,88.7,71.6z M89.8,68.8c0.1,0.1,0.2,0.1,0.3,0.3
	c0.1,0.1,0.1,0.2,0,0.4c-0.1,0.1-0.1,0.3-0.2,0.3c-0.1,0.1-0.3,0.1-0.4,0.1c-0.1-0.1-0.2-0.1-0.3-0.3c0-0.1-0.1-0.3,0-0.4
	c0.1-0.1,0.1-0.1,0.3-0.3C89.5,68.8,89.7,68.8,89.8,68.8z M90.7,65.9c0.1,0,0.3,0.1,0.3,0.2c0.1,0.2,0.1,0.3,0.1,0.4
	c-0.1,0.1-0.1,0.3-0.2,0.4c-0.1,0.1-0.3,0.1-0.4,0.1c-0.1,0-0.2-0.1-0.3-0.3C90,66.5,90,66.4,90,66.3c0.1-0.1,0.1-0.2,0.3-0.3
	C90.4,65.9,90.5,65.8,90.7,65.9z M91.3,62.9c0.1,0,0.3,0.1,0.4,0.1c0.1,0.2,0.1,0.3,0.1,0.4c0,0.1,0,0.3-0.1,0.4
	c-0.1,0.1-0.3,0.2-0.4,0.1c-0.1,0-0.1-0.1-0.3-0.2c-0.1-0.1-0.1-0.2-0.1-0.4c0-0.1,0.1-0.2,0.1-0.4C91.1,62.9,91.2,62.9,91.3,62.9z
	 M91.8,60c0.1,0,0.3,0.1,0.4,0.1c0.1,0.2,0.1,0.3,0.1,0.4c0,0.1,0,0.3-0.1,0.4c-0.1,0.1-0.3,0.2-0.4,0.1c-0.1,0-0.1-0.1-0.3-0.2
	c-0.1-0.1-0.1-0.2-0.1-0.4c0-0.1,0.1-0.2,0.1-0.4C91.5,60,91.6,59.9,91.8,60z M92,57c0.1,0,0.3,0.1,0.4,0.2c0.1,0.1,0.1,0.2,0.1,0.4
	c0,0.1,0,0.3-0.1,0.3C92.3,58,92.1,58,92,58c-0.1,0-0.2-0.1-0.4-0.2c-0.1-0.1-0.1-0.2-0.1-0.4s0.1-0.2,0.1-0.4
	C91.7,57,91.8,57,92,57z M92,53.9c0.1,0,0.3,0.1,0.4,0.1c0.1,0.1,0.1,0.2,0.1,0.4c0,0.1,0,0.3-0.1,0.4c-0.1,0.1-0.2,0.3-0.4,0.3
	c-0.1,0-0.2-0.1-0.4-0.2c-0.1-0.1-0.1-0.2-0.1-0.4c0-0.1,0.1-0.2,0.1-0.4C91.7,53.9,91.8,53.9,92,53.9z M91.5,50.8
	c0.1,0,0.4,0.1,0.4,0.1c0.1,0.1,0.1,0.2,0.1,0.4c0.1,0.1,0.1,0.3-0.1,0.4c-0.1,0.2-0.1,0.3-0.3,0.3c-0.1,0-0.3-0.1-0.4-0.1
	c-0.1-0.1-0.1-0.2-0.1-0.4c-0.1-0.1,0-0.2,0.1-0.4C91.3,51,91.4,50.8,91.5,50.8z M91,47.8c0.1,0,0.3,0,0.4,0.1
	c0.1,0.1,0.2,0.1,0.2,0.3c0.1,0.1,0.1,0.3,0,0.4c-0.1,0.1-0.2,0.2-0.3,0.3c-0.1,0-0.3,0-0.4-0.1c-0.1,0-0.2-0.1-0.2-0.3
	c-0.1-0.1,0-0.2,0-0.4C90.7,48,90.8,47.9,91,47.8z M89.9,44.9c0.1-0.1,0.4-0.1,0.4,0c0.1,0.1,0.2,0.1,0.2,0.3c0.1,0.1,0.1,0.3,0,0.4
	c0,0.1-0.1,0.3-0.2,0.4c-0.1,0-0.3,0-0.4-0.1c-0.1-0.1-0.2-0.2-0.3-0.3c0-0.1,0-0.3,0-0.4C89.7,45.1,89.8,44.9,89.9,44.9z
	 M88.9,42.1c0.1-0.1,0.4-0.1,0.4,0c0.1,0.1,0.2,0.1,0.2,0.3c0.1,0.1,0.1,0.3,0,0.4c0,0.1-0.1,0.3-0.2,0.4c-0.1,0-0.3,0-0.4-0.1
	c-0.1-0.1-0.2-0.2-0.3-0.3c0-0.1,0-0.3,0-0.4C88.7,42.3,88.8,42.1,88.9,42.1z M87.5,39.4c0.1-0.1,0.3-0.1,0.4-0.1
	c0.1,0.1,0.2,0.1,0.3,0.3c0.1,0.1,0.1,0.3,0,0.4c0,0.2-0.1,0.3-0.2,0.4c-0.1,0.1-0.2,0.1-0.4,0c-0.1-0.1-0.2-0.1-0.3-0.3
	c-0.1-0.1,0-0.2,0-0.4S87.5,39.5,87.5,39.4z M85.9,36.8c0.1-0.1,0.3-0.1,0.4-0.1c0.2,0.1,0.3,0.1,0.4,0.2c0.1,0.1,0.1,0.3,0,0.4
	c0.1,0.1-0.1,0.3-0.1,0.4c-0.1,0.1-0.2,0-0.4,0c-0.1-0.1-0.2-0.1-0.3-0.3c-0.1-0.1-0.1-0.2-0.1-0.4C85.7,37,85.8,36.9,85.9,36.8z
	 M84.1,34.3c0.1-0.1,0.2-0.1,0.4-0.1c0.2,0.1,0.2,0.1,0.3,0.2c0.1,0.1,0.2,0.2,0.1,0.4c0,0.2-0.1,0.4-0.1,0.4
	c-0.1,0.1-0.2,0.1-0.4,0c-0.1,0-0.3-0.1-0.4-0.1c-0.1-0.1-0.1-0.2-0.1-0.4C83.9,34.5,84,34.4,84.1,34.3z M82.3,31.9
	c0.1-0.1,0.3-0.1,0.4-0.1c0.2,0,0.3,0.1,0.4,0.1c0.1,0.1,0.2,0.2,0.1,0.4c0,0.2,0,0.4-0.1,0.4c-0.1,0.1-0.2,0.1-0.4,0.1
	c-0.1,0-0.2-0.1-0.3-0.1c-0.1-0.1-0.1-0.2-0.1-0.4C82.1,32.1,82.2,32,82.3,31.9z M80.1,29.9c0.1-0.1,0.2-0.2,0.3-0.2
	c0.2,0,0.3,0.1,0.4,0.1c0.1,0.1,0.2,0.2,0.2,0.4c0.1,0.1,0,0.3-0.1,0.4c-0.1,0.1-0.2,0.1-0.4,0.1c-0.1,0-0.2,0-0.4-0.1
	C80,30.5,80,30.4,80,30.3C80,30.1,80,30,80.1,29.9z M77.7,27.9c0.1-0.1,0.2-0.2,0.3-0.2c0.2-0.1,0.3,0,0.4,0.1
	c0.1,0.1,0.2,0.2,0.1,0.4c0.1,0.1,0.1,0.3,0,0.4c-0.1,0.1-0.2,0.1-0.4,0.1c-0.1,0-0.2,0-0.4-0.1c-0.1-0.1-0.1-0.1-0.2-0.3
	C77.5,28.1,77.6,27.9,77.7,27.9z M75.2,26.1c0.1-0.1,0.2-0.2,0.3-0.2c0.2-0.1,0.3,0,0.4,0.1c0.1,0.1,0.2,0.1,0.2,0.3
	c0.1,0.1,0.1,0.3,0,0.4c-0.1,0.1-0.2,0.1-0.4,0.2c-0.1,0-0.3,0-0.4-0.1c-0.1-0.1-0.1-0.1-0.2-0.3C75.2,26.4,75.2,26.2,75.2,26.1z
	 M72.6,24.5c0.1-0.1,0.2-0.2,0.3-0.2c0.2-0.1,0.3,0,0.4,0.1c0.1,0.1,0.2,0.1,0.2,0.3c0.1,0.1,0.1,0.3,0,0.4s-0.2,0.1-0.4,0.2
	c-0.1,0-0.3,0-0.4-0.1c-0.1-0.1-0.1-0.1-0.2-0.3C72.6,24.8,72.6,24.6,72.6,24.5z M69.8,23.2c0.1-0.1,0.2-0.2,0.3-0.2
	c0.2-0.1,0.3-0.1,0.4,0c0.1,0.1,0.3,0.1,0.3,0.3c0.1,0.1,0.1,0.3,0.1,0.4c-0.1,0.1-0.2,0.1-0.4,0.2c-0.1,0.1-0.3,0.1-0.4,0
	c-0.1-0.1-0.1-0.2-0.2-0.3C69.7,23.5,69.7,23.3,69.8,23.2z M67,22.2c0.1-0.1,0.1-0.2,0.3-0.3c0.1-0.1,0.2-0.1,0.4,0S68,22,68,22.1
	c0.1,0.1,0.1,0.3,0.1,0.4c-0.1,0.1-0.1,0.2-0.3,0.3c-0.1,0-0.3,0.1-0.4,0c-0.1-0.1-0.1-0.1-0.3-0.3C67,22.5,67,22.3,67,22.2z
	 M64.2,21.3c0-0.1,0.1-0.3,0.2-0.3c0.2-0.1,0.3-0.1,0.4-0.1c0.1,0.1,0.3,0.1,0.4,0.2c0.1,0.1,0.1,0.3,0.1,0.4c0,0.1-0.1,0.2-0.3,0.3
	C64.8,22,64.7,22,64.5,22c-0.1-0.1-0.2-0.1-0.3-0.3C64.2,21.6,64.1,21.5,64.2,21.3z M61.1,20.8c0-0.1,0.1-0.3,0.1-0.4
	c0.2-0.1,0.3-0.1,0.4-0.1c0.1,0,0.3,0,0.4,0.1c0.1,0.1,0.2,0.3,0.1,0.4c0,0.1-0.1,0.1-0.2,0.3c-0.1,0.1-0.2,0.1-0.4,0.1
	c-0.1,0-0.2-0.1-0.4-0.1C61.1,21.1,61.1,21,61.1,20.8z M58,20.5c0-0.1,0.1-0.3,0.2-0.4c0.1-0.1,0.2-0.1,0.4-0.1c0.1,0,0.3,0,0.3,0.1
	c0.1,0.1,0.2,0.2,0.2,0.4c0,0.1-0.1,0.2-0.2,0.4c-0.1,0.1-0.2,0.1-0.4,0.1c-0.1,0-0.2-0.1-0.4-0.1C58.1,20.7,58,20.6,58,20.5z
	 M55,20.3c0-0.1,0.1-0.3,0.2-0.4c0.1-0.1,0.2-0.1,0.4-0.1c0.1,0,0.3,0,0.3,0.1c0.1,0.1,0.2,0.2,0.2,0.4c0,0.1-0.1,0.2-0.2,0.4
	c-0.1,0.1-0.2,0.1-0.4,0.1s-0.2-0.1-0.4-0.1C55.1,20.6,55,20.5,55,20.3z M52,20.5c0-0.1,0.1-0.3,0.1-0.4c0.1-0.1,0.2-0.1,0.4-0.1
	s0.3,0,0.4,0.1c0.1,0.1,0.3,0.2,0.3,0.4c0,0.1-0.1,0.2-0.2,0.4c-0.1,0.1-0.2,0.1-0.4,0.1c-0.1,0-0.2-0.1-0.4-0.1
	C52.1,20.7,52,20.6,52,20.5z M48.9,21c0-0.1,0.1-0.4,0.1-0.4c0.1-0.1,0.2-0.1,0.4-0.1c0.1-0.1,0.3-0.1,0.4,0.1
	c0.2,0.1,0.3,0.1,0.3,0.3s-0.1,0.3-0.1,0.4c-0.1,0.1-0.2,0.1-0.4,0.1c-0.1,0.1-0.2,0-0.4-0.1C49.1,21.2,48.9,21,48.9,21z M45.9,21.6
	c0-0.1,0-0.3,0.1-0.4c0.1-0.1,0.1-0.2,0.3-0.2c0.1-0.1,0.3-0.1,0.4,0c0.1,0.1,0.2,0.2,0.3,0.3c0,0.1,0,0.3-0.1,0.4
	c0,0.1-0.1,0.2-0.3,0.2c-0.1,0.1-0.2,0-0.4,0C46,21.9,46,21.8,45.9,21.6z M43.2,22.5c-0.1-0.1-0.1-0.4,0-0.4
	c0.1-0.1,0.1-0.2,0.3-0.2c0.1-0.1,0.3-0.1,0.4,0c0.1,0,0.3,0.1,0.4,0.2c0,0.1,0,0.3-0.1,0.4c-0.1,0.1-0.2,0.2-0.3,0.3
	c-0.1,0-0.3,0-0.4,0C43.3,22.8,43.2,22.6,43.2,22.5z M40.2,23.8c-0.1-0.1-0.1-0.3-0.1-0.4c0.1-0.1,0.1-0.2,0.3-0.3
	c0.1-0.1,0.3-0.1,0.4,0c0.2,0,0.3,0.1,0.4,0.2c0.1,0.1,0.1,0.2,0,0.4c-0.1,0.1-0.1,0.2-0.3,0.3c-0.1,0.1-0.2,0-0.4,0
	C40.4,24,40.3,23.8,40.2,23.8z M37.5,25.2c-0.1-0.1-0.1-0.3-0.1-0.4c0.1-0.2,0.1-0.3,0.2-0.4c0.1-0.1,0.3-0.1,0.4,0
	c0.1-0.1,0.3,0.1,0.4,0.1c0.1,0.1,0,0.2,0,0.4c-0.1,0.1-0.1,0.2-0.3,0.3c-0.1,0.1-0.2,0.1-0.4,0.1C37.7,25.4,37.6,25.4,37.5,25.2z
	 M34.9,26.7c-0.1-0.1-0.1-0.3-0.1-0.4c0.1-0.2,0.1-0.3,0.2-0.4c0.1-0.1,0.3-0.1,0.4,0c0.1-0.1,0.3,0.1,0.4,0.1c0.1,0.1,0,0.2,0,0.4
	c-0.1,0.1-0.1,0.2-0.3,0.3c-0.1,0.1-0.2,0.1-0.4,0.1C35.1,26.9,35,26.8,34.9,26.7z M32.6,28.5c-0.1-0.1-0.1-0.2-0.1-0.4
	c0.1-0.2,0.1-0.2,0.2-0.3c0.1-0.1,0.2-0.2,0.4-0.1c0.2,0,0.4,0.1,0.4,0.1c0.1,0.1,0.1,0.2,0,0.4c0,0.1-0.1,0.3-0.1,0.4
	c-0.1,0.1-0.2,0.1-0.4,0.1C32.8,28.7,32.7,28.7,32.6,28.5z M30.3,30.6c-0.1-0.1-0.1-0.3-0.1-0.4c0-0.2,0.1-0.3,0.1-0.4
	c0.1-0.1,0.2-0.2,0.4-0.1c0.2,0,0.4,0,0.4,0.1c0.1,0.1,0.1,0.2,0.1,0.4c0,0.1-0.1,0.2-0.1,0.3c-0.1,0.1-0.2,0.1-0.4,0.1
	C30.5,30.8,30.4,30.7,30.3,30.6z M28.2,32.9c-0.1-0.1-0.2-0.2-0.2-0.3c0-0.2,0.1-0.3,0.1-0.4c0.1-0.1,0.2-0.2,0.4-0.2
	c0.1-0.1,0.3,0,0.4,0.1c0.1,0.1,0.1,0.2,0.1,0.4c0,0.1,0,0.2-0.1,0.4c-0.1,0.1-0.2,0.1-0.4,0.1S28.3,33.1,28.2,32.9z M26.3,35.2
	C26.1,35.1,26,35,26,34.9c-0.1-0.2,0-0.3,0.1-0.4c0.1-0.1,0.2-0.2,0.4-0.1c0.1-0.1,0.3-0.1,0.4,0c0.1,0.1,0.1,0.2,0.1,0.4
	c0,0.1,0,0.2-0.1,0.4c-0.1,0.1-0.1,0.1-0.3,0.2C26.5,35.4,26.3,35.3,26.3,35.2z M24.6,37.7c-0.1-0.1-0.2-0.2-0.2-0.3
	c-0.1-0.2,0-0.3,0.1-0.4c0.1-0.1,0.1-0.2,0.3-0.2c0.1-0.1,0.3-0.1,0.4,0c0.1,0.1,0.1,0.2,0.2,0.4c0,0.1,0,0.3-0.1,0.4
	c-0.1,0.1-0.1,0.1-0.3,0.2C24.9,37.8,24.8,37.8,24.6,37.7z M23.1,40.5c-0.1-0.1-0.2-0.2-0.2-0.3c-0.1-0.2-0.1-0.3,0-0.4
	c0.1-0.1,0.1-0.3,0.3-0.3c0.1-0.1,0.3-0.1,0.4-0.1c0.1,0.1,0.1,0.2,0.2,0.4c0.1,0.1,0.1,0.3,0,0.4c-0.1,0.1-0.2,0.1-0.3,0.2
	C23.4,40.5,23.2,40.5,23.1,40.5z M21.8,43.1c-0.1-0.1-0.3-0.1-0.3-0.3c-0.1-0.1-0.1-0.2,0-0.4c0-0.1,0.1-0.3,0.2-0.3
	c0.1-0.1,0.3-0.1,0.4-0.1c0.1,0,0.1,0.1,0.2,0.3c0.1,0.1,0.1,0.3,0.1,0.4c-0.1,0.1-0.1,0.1-0.3,0.3C22.1,43.1,21.9,43.2,21.8,43.1z
	 M20.9,46c-0.1-0.1-0.3-0.1-0.3-0.3c-0.1-0.1-0.1-0.2,0-0.4c0-0.1,0.1-0.3,0.2-0.3c0.1-0.1,0.3-0.1,0.4-0.1c0.1,0,0.1,0.1,0.2,0.3
	c0.1,0.1,0.1,0.3,0.1,0.4c-0.1,0.1-0.1,0.1-0.3,0.3C21.2,46,21,46.1,20.9,46z M20.1,49c-0.1,0-0.3-0.1-0.3-0.2
	c-0.1-0.2-0.1-0.3-0.1-0.4c0.1-0.1,0.1-0.3,0.2-0.4c0.1-0.1,0.3-0.1,0.4-0.1c0.1,0,0.2,0.1,0.3,0.3c0.1,0.1,0.1,0.2,0.1,0.4
	c-0.1,0.1-0.1,0.2-0.3,0.3C20.4,49,20.3,49.1,20.1,49z M19.6,52.1c-0.1,0-0.3-0.1-0.4-0.1c-0.1-0.2-0.1-0.3-0.1-0.4
	c0-0.1,0-0.3,0.1-0.4c0.1-0.1,0.3-0.2,0.4-0.1c0.1,0,0.1,0.1,0.3,0.2c0.1,0.1,0.1,0.2,0.1,0.4c0,0.1-0.1,0.2-0.1,0.4
	C19.9,52.1,19.8,52.1,19.6,52.1z M19.4,55c-0.1,0-0.3-0.1-0.4-0.2c-0.1-0.1-0.1-0.2-0.1-0.4c0-0.1,0-0.3,0.1-0.3
	c0.1-0.1,0.2-0.2,0.4-0.2c0.1,0,0.2,0.1,0.4,0.2c0.1,0.1,0.1,0.2,0.1,0.4s-0.1,0.2-0.1,0.4C19.7,54.9,19.6,55,19.4,55z M19.2,58
	c-0.1,0-0.3-0.1-0.4-0.1c-0.1-0.1-0.1-0.2-0.1-0.4c0-0.1,0-0.3,0.1-0.4c0.1-0.1,0.2-0.3,0.4-0.3c0.1,0,0.2,0.1,0.4,0.2
	c0.1,0.1,0.1,0.2,0.1,0.4s-0.1,0.2-0.1,0.4C19.5,57.9,19.4,58,19.2,58z M19.6,61.2c-0.1,0-0.4-0.1-0.4-0.1C19,61,19,60.9,19,60.8
	c-0.1-0.1-0.1-0.3,0.1-0.4c0.1-0.2,0.1-0.3,0.3-0.3c0.1,0,0.3,0.1,0.4,0.1c0.1,0.1,0.1,0.2,0.1,0.4c0.1,0.1,0,0.2-0.1,0.4
	C19.8,61.1,19.6,61.2,19.6,61.2z M20.1,64.2c-0.1,0-0.4-0.1-0.4-0.1c-0.1-0.1-0.1-0.2-0.1-0.4c-0.1-0.1-0.1-0.3,0.1-0.4
	c0.1-0.2,0.1-0.3,0.3-0.3c0.1,0,0.3,0.1,0.4,0.1c0.1,0.1,0.1,0.2,0.1,0.4c0.1,0.1,0,0.2-0.1,0.4C20.3,64,20.1,64.2,20.1,64.2z
	 M20.8,67.2c-0.1,0-0.3,0-0.4-0.1c-0.1-0.1-0.2-0.1-0.2-0.3c-0.1-0.1-0.1-0.3,0-0.4c0.1-0.1,0.2-0.2,0.3-0.3c0.1,0,0.3,0,0.4,0.1
	c0.1,0,0.2,0.1,0.2,0.3c0.1,0.1,0,0.2,0,0.4C21.1,67,20.9,67.1,20.8,67.2z M21.9,70c-0.1,0.1-0.3,0.1-0.4,0
	c-0.1-0.1-0.2-0.1-0.2-0.3c-0.1-0.1-0.1-0.3,0-0.4c0-0.2,0.1-0.3,0.3-0.4c0.1-0.1,0.2,0,0.4,0.1c0.1,0.1,0.1,0.1,0.2,0.3
	c0.1,0.1,0,0.2,0,0.4C22.1,69.9,22,70,21.9,70z M23,72.7c-0.1,0.1-0.3,0.1-0.4,0.1c-0.1-0.1-0.2-0.1-0.3-0.3c-0.1-0.1-0.1-0.3,0-0.4
	c0-0.2,0.1-0.3,0.2-0.4c0.1-0.1,0.2-0.1,0.4,0c0.1,0.1,0.2,0.1,0.3,0.3c0.1,0.1,0,0.2,0,0.4C23.2,72.6,23.1,72.7,23,72.7z
	 M24.5,75.5c-0.1,0.1-0.3,0.1-0.4,0.1c-0.2-0.1-0.3-0.1-0.4-0.2c-0.1-0.1-0.1-0.3,0-0.4c-0.1-0.1,0.1-0.3,0.1-0.4
	c0.1-0.1,0.2,0,0.4,0c0.1,0.1,0.2,0.1,0.3,0.3c0.1,0.1,0.1,0.2,0.1,0.4C24.7,75.3,24.6,75.4,24.5,75.5z M26.2,78.1
	c-0.1,0.1-0.2,0.1-0.4,0.1c-0.2-0.1-0.2-0.1-0.3-0.2c-0.1-0.1-0.2-0.2-0.1-0.4c0-0.2,0.1-0.4,0.1-0.4c0.1-0.1,0.2-0.1,0.4,0
	c0.1,0,0.3,0.1,0.4,0.1c0.1,0.1,0.1,0.2,0.1,0.4C26.4,77.8,26.3,78,26.2,78.1z M28,80.4c-0.1,0.1-0.3,0.1-0.4,0.1
	c-0.2,0-0.3-0.1-0.4-0.1c-0.1-0.1-0.2-0.2-0.1-0.4c0-0.2,0-0.4,0.1-0.4c0.1-0.1,0.2-0.1,0.4-0.1c0.1,0,0.2,0.1,0.3,0.1
	c0.1,0.1,0.1,0.2,0.1,0.4C28.1,80.1,28.1,80.3,28,80.4z M30.1,82.7c-0.1,0.1-0.3,0.1-0.4,0.1c-0.2,0-0.3-0.1-0.4-0.1
	c-0.1-0.1-0.2-0.2-0.1-0.4c0-0.2,0-0.4,0.1-0.4c0.1-0.1,0.2-0.1,0.4-0.1c0.1,0,0.2,0.1,0.3,0.1c0.1,0.1,0.1,0.2,0.1,0.4
	C30.2,82.5,30.1,82.6,30.1,82.7z M32.4,84.5c-0.1,0.1-0.2,0.2-0.3,0.2c-0.2,0-0.3-0.1-0.4-0.1c-0.1-0.1-0.2-0.2-0.2-0.4
	c-0.1-0.1,0-0.3,0.1-0.4c0.1-0.1,0.2-0.1,0.4-0.1c0.1,0,0.2,0,0.4,0.1c0.1,0.1,0.1,0.2,0.1,0.4C32.6,84.3,32.6,84.5,32.4,84.5z
	 M34.8,86.4c-0.1,0.1-0.2,0.2-0.3,0.2c-0.2,0.1-0.3,0-0.4-0.1c-0.1-0.1-0.2-0.2-0.1-0.4c-0.1-0.1-0.1-0.3,0-0.4
	c0.1-0.1,0.2-0.1,0.4-0.1c0.1,0,0.2,0,0.4,0.1c0.1,0.1,0.1,0.1,0.2,0.3C35,86.2,34.9,86.3,34.8,86.4z M37.5,88.1
	c-0.1,0.1-0.2,0.2-0.3,0.2c-0.2,0.1-0.3,0-0.4-0.1c-0.1-0.1-0.2-0.1-0.2-0.3c-0.1-0.1-0.1-0.3,0-0.4c0.1-0.1,0.2-0.1,0.4-0.2
	c0.1,0,0.3,0,0.4,0.1c0.1,0.1,0.1,0.1,0.2,0.3C37.6,87.8,37.6,87.9,37.5,88.1z M39.9,89.5c-0.1,0.1-0.2,0.3-0.3,0.3
	c-0.2,0.1-0.3,0-0.4,0c-0.1-0.1-0.3-0.1-0.3-0.4c-0.1-0.1-0.1-0.3,0-0.4c0-0.1,0.1-0.2,0.4-0.2c0.1-0.1,0.2-0.1,0.4,0
	c0.1,0.1,0.1,0.1,0.2,0.3C40,89.2,40,89.4,39.9,89.5z M42.8,90.7c-0.1,0.1-0.1,0.3-0.3,0.3c-0.1,0.1-0.2,0.1-0.4,0
	c-0.1,0-0.3-0.1-0.3-0.2c-0.1-0.1-0.1-0.3-0.1-0.4c0-0.1,0.1-0.1,0.3-0.2c0.1-0.1,0.3-0.1,0.4-0.1c0.1,0.1,0.1,0.1,0.3,0.3
	C42.8,90.4,42.9,90.6,42.8,90.7z M45.7,91.6c0,0.1-0.1,0.3-0.2,0.3C45.3,92,45.2,92,45.2,92c-0.1-0.1-0.3-0.1-0.4-0.2
	c-0.1-0.1-0.1-0.3-0.1-0.4c0-0.1,0.1-0.2,0.3-0.3c0.1-0.1,0.2-0.1,0.4-0.1c0.1,0.1,0.2,0.1,0.3,0.3C45.7,91.3,45.8,91.5,45.7,91.6z
	 M48.7,92.5c0,0.1-0.1,0.3-0.2,0.3c-0.2,0.1-0.3,0.1-0.4,0.1c-0.1-0.1-0.3-0.1-0.4-0.2c-0.1-0.1-0.1-0.3-0.1-0.4
	c0-0.1,0.1-0.2,0.3-0.3c0.1-0.1,0.2-0.1,0.4-0.1c0.1,0.1,0.2,0.1,0.3,0.3C48.7,92.2,48.8,92.3,48.7,92.5z M51.6,92.8
	c0,0.1-0.1,0.3-0.1,0.4c-0.2,0.1-0.3,0.1-0.4,0.1c-0.1,0-0.3,0-0.4-0.1c-0.1-0.1-0.2-0.3-0.1-0.4c0-0.1,0.1-0.1,0.2-0.3
	c0.1-0.1,0.2-0.1,0.4-0.1c0.1,0,0.2,0.1,0.4,0.1C51.6,92.5,51.6,92.7,51.6,92.8z M54.7,93c0,0.1-0.1,0.3-0.2,0.4
	c-0.1,0.1-0.2,0.1-0.4,0.1c-0.1,0-0.3,0-0.3-0.1c-0.1-0.1-0.2-0.2-0.2-0.4s0.1-0.2,0.2-0.4c0.1-0.1,0.2-0.1,0.4-0.1s0.2,0.1,0.4,0.1
	C54.7,92.7,54.7,92.8,54.7,93z"/>
<path class="st1" d="M55.6,16.1c22.4,0,40.5,18.1,40.5,40.5c0,22.4-18.1,40.5-40.5,40.5c-22.4,0-40.5-18.1-40.5-40.5
	C15.1,34.3,33.2,16.1,55.6,16.1z"/>
<text transform="matrix(0.4226 -0.9063 0.9063 0.4226 17.174 43.0935)" class="st2 st3">P</text>
<text transform="matrix(0.5878 -0.809 0.809 0.5878 20.377 36.195)" class="st2 st3">E</text>
<text transform="matrix(0.7314 -0.682 0.682 0.7314 24.6801 30.0943)" class="st2 st3">R</text>
<text transform="matrix(0.848 -0.5299 0.5299 0.848 30.635 24.4932)" class="st2 st3">S</text>
<text transform="matrix(0.9336 -0.3584 0.3584 0.9336 36.9389 20.3934)" class="st2 st3">E</text>
<text transform="matrix(0.9781 -0.2079 0.2079 0.9781 43.9417 17.6937)" class="st2 st3">V</text>
<text transform="matrix(0.9998 -1.745240e-02 1.745240e-02 0.9998 51.3451 16.1946)" class="st2 st3">E</text>
<text transform="matrix(0.9848 0.1736 -0.1736 0.9848 58.8479 16.0944)" class="st2 st3">R</text>
<text transform="matrix(0.9336 0.3584 -0.3584 0.9336 66.8031 17.4943)" class="st2 st3">A</text>
<text transform="matrix(0.848 0.5299 -0.5299 0.848 73.8057 20.1945)" class="st2 st3">R</text>
<text transform="matrix(0.7314 0.682 -0.682 0.7314 80.5611 24.5935)" class="st2 st3">E</text>
<text transform="matrix(0.5446 0.8387 -0.8387 0.5446 88.8884 33.4935)" class="st2 st3">I</text>
<text transform="matrix(0.4226 0.9063 -0.9063 0.4226 90.899 36.4932)" class="st2 st3">N</text>
<polyline points="28.5,95.9 32.5,89.9 36.5,92.6 36,93.3 32.8,91.2 31.5,93 34.3,94.9 33.9,95.6 31.1,93.7 29.3,96.4 28.5,95.9 "/>
<path d="M42.1,94.9l0.9,0.4l-1.6,3.8c-0.3,0.7-0.6,1.2-0.9,1.5c-0.3,0.3-0.7,0.5-1.2,0.6c-0.5,0.1-1.1,0-1.7-0.3
	c-0.6-0.3-1.1-0.6-1.4-0.9c-0.3-0.4-0.5-0.8-0.5-1.3c0-0.5,0.1-1.1,0.4-1.8l1.5-3.8l0.9,0.4l-1.5,3.8c-0.2,0.6-0.4,1-0.4,1.3
	c0,0.3,0.1,0.6,0.3,0.9c0.2,0.3,0.5,0.5,0.9,0.6c0.6,0.3,1.2,0.3,1.6,0.1c0.4-0.2,0.8-0.7,1.1-1.5L42.1,94.9"/>
<polyline points="45.2,103.2 46.7,97.1 44.4,96.5 44.6,95.7 50.1,97.1 49.9,97.9 47.6,97.3 46.1,103.5 45.2,103.2 "/>
<path d="M56,97.2l0.9,0l-0.1,4.1c0,0.7-0.1,1.3-0.3,1.7c-0.2,0.4-0.5,0.8-0.9,1c-0.4,0.3-1,0.4-1.7,0.3c-0.7,0-1.2-0.2-1.6-0.4
	c-0.4-0.2-0.7-0.6-0.9-1c-0.2-0.4-0.2-1-0.2-1.8l0.1-4.1l0.9,0l-0.1,4.1c0,0.6,0,1.1,0.1,1.4c0.1,0.3,0.3,0.5,0.6,0.7
	c0.3,0.2,0.6,0.3,1,0.3c0.7,0,1.2-0.1,1.5-0.4c0.3-0.3,0.5-0.9,0.5-1.8L56,97.2"/>
<path d="M60.4,100.1l2-0.2c0.4-0.1,0.8-0.1,1-0.3c0.2-0.1,0.4-0.3,0.5-0.5c0.1-0.2,0.1-0.4,0.1-0.7c0-0.3-0.2-0.6-0.5-0.8
	c-0.3-0.2-0.7-0.2-1.2-0.2l-2.2,0.3L60.4,100.1 M60,104.2l-0.9-7.1l3.1-0.4c0.6-0.1,1.1-0.1,1.5,0c0.3,0.1,0.6,0.3,0.9,0.6
	c0.2,0.3,0.4,0.6,0.4,1c0.1,0.5,0,0.9-0.3,1.3c-0.3,0.4-0.8,0.7-1.4,0.8c0.3,0.1,0.5,0.2,0.6,0.3c0.3,0.2,0.6,0.5,0.9,0.8l1.5,1.8
	l-1.2,0.1l-1.1-1.4c-0.3-0.4-0.6-0.7-0.8-0.9c-0.2-0.2-0.4-0.3-0.5-0.4c-0.2-0.1-0.3-0.1-0.5-0.1c-0.1,0-0.3,0-0.5,0l-1.1,0.1
	l0.4,3.2L60,104.2z"/>
<path d="M70.7,94.3l0.9-0.3l1.4,3.9c0.2,0.7,0.4,1.2,0.4,1.7c0,0.5-0.2,0.9-0.5,1.3c-0.3,0.4-0.8,0.7-1.4,0.9
	c-0.6,0.2-1.2,0.3-1.7,0.2c-0.5-0.1-0.9-0.3-1.2-0.6c-0.3-0.3-0.6-0.9-0.9-1.6l-1.4-3.9l0.9-0.3l1.4,3.9c0.2,0.6,0.4,1,0.6,1.2
	c0.2,0.2,0.5,0.4,0.8,0.4c0.3,0.1,0.7,0,1.1-0.1c0.7-0.2,1.1-0.6,1.2-1c0.2-0.4,0.1-1-0.2-1.9L70.7,94.3"/>
<path d="M77,99.4l-3.7-6.1l1.2-0.7l4.1,3.5c0.4,0.3,0.7,0.6,0.8,0.7c-0.1-0.3-0.2-0.7-0.3-1.2l-1.1-5.2l1.1-0.7l3.7,6.1l-0.8,0.5
	L79,91.2l1.3,6.2l-0.7,0.4l-4.9-4.2l3.1,5.2L77,99.4"/>
<ellipse transform="matrix(0.2298 -0.9732 0.9732 0.2298 -12.3344 97.7675)" class="st1" cx="55.6" cy="56.7" rx="29.5" ry="29.5"/>
<g>
	<path d="M35.5,61.8V51.6h1.4v10.2H35.5z"/>
	<path d="M39.2,61.8V51.6h1.4l5.4,8v-8h1.3v10.2h-1.4l-5.4-8v8H39.2z"/>
	<path d="M49.6,61.8V51.6h6.9v1.2H51v3.2h4.8v1.2H51v4.6H49.6z"/>
	<path d="M58.3,61.8V51.6h4.5c0.9,0,1.6,0.1,2.1,0.3c0.5,0.2,0.9,0.5,1.1,1s0.4,1,0.4,1.5c0,0.7-0.2,1.3-0.7,1.8
		c-0.5,0.5-1.2,0.8-2.2,0.9c0.4,0.2,0.6,0.3,0.8,0.5c0.4,0.4,0.8,0.8,1.1,1.4l1.8,2.8h-1.7l-1.4-2.1c-0.4-0.6-0.7-1.1-1-1.4
		c-0.3-0.3-0.5-0.6-0.7-0.7c-0.2-0.1-0.4-0.2-0.6-0.3c-0.2,0-0.4,0-0.8,0h-1.6v4.5H58.3z M59.6,56.1h2.9c0.6,0,1.1-0.1,1.5-0.2
		c0.3-0.1,0.6-0.3,0.8-0.6c0.2-0.3,0.3-0.6,0.3-0.9c0-0.5-0.2-0.9-0.5-1.2c-0.4-0.3-0.9-0.5-1.7-0.5h-3.2V56.1z"/>
	<path d="M67.5,61.8l3.9-10.2h1.5l4.2,10.2h-1.5l-1.2-3.1H70l-1.1,3.1H67.5z M70.4,57.6h3.5l-1.1-2.8c-0.3-0.9-0.6-1.6-0.7-2.1
		c-0.1,0.7-0.3,1.3-0.6,2L70.4,57.6z"/>
</g>
</svg>
